<svg width="30.5" height="30.5" viewBox="0 0 31 31" fill="none"
    xmlns="http://www.w3.org/2000/svg" data-sentry-element="svg" data-sentry-component="Canadian" data-sentry-source-file="canadian.tsx">
    <path fill-rule="evenodd" clip-rule="evenodd" d="M15.1738 0L12.3127 5.55035L10.0981 4.72831V8.56568L10.9283 11.3755L10.0981 11.7869L6.56828 8.63456L5.53016 10.2105L1.92344 10.142L2.96964 14.3908L1.29004 15.8298L7.39886 21.7919L7.19131 23.8478L12.9354 22.6828L14.6657 22.6143V30.9745H15.1738H15.1769H15.685V22.6143L17.4153 22.6828L23.159 23.8478L22.9515 21.7919L29.0603 15.8298L27.3811 14.3908L28.4273 10.142L24.8202 10.2105L23.782 8.63456L20.2526 11.7869L19.422 11.3755L20.2526 8.56568V4.72831L18.038 5.55035L15.1769 0H15.1738Z" fill="#E33741" data-sentry-element="path" data-sentry-source-file="canadian.tsx"></path>
</svg>