<svg width="200.9" height="25.92258064516129" viewBox="0 0 124 16" fill="none"
    xmlns="http://www.w3.org/2000/svg" data-sentry-element="svg" data-sentry-component="NetcoinsLogoText" data-sentry-source-file="netcoins-logo-text.tsx">
    <path d="M9.64054 9.74101L2.71864 0.965766H0.563477V15.1115H3.22407V5.57804L10.6515 15.1115H12.3012V0.965766H9.64054V9.74101ZM28.4968 12.4859H20.571V9.30576H28.216V6.82763H20.571V3.5492H28.4968V0.965766H17.9665V15.1115H28.4968V12.4859ZM38.2619 15.1115H40.9226V3.38774H45.4015V0.965766H33.783V3.38774H38.2619V15.1115ZM60.8739 11.4961C59.9119 12.3994 58.6414 12.9016 57.3217 12.9001C53.8116 12.9001 52.4778 10.4641 52.4637 8.11934C52.4497 5.7746 53.9099 3.20521 57.3217 3.20521C58.5899 3.18531 59.8151 3.66432 60.7335 4.53905L62.5097 2.82612C61.8316 2.13958 61.0237 1.59483 60.133 1.22361C59.2423 0.852396 58.2867 0.662132 57.3217 0.663903C52.218 0.663903 49.8171 4.4197 49.8382 8.1053C49.8592 11.7909 52.0776 15.3923 57.3217 15.3923C58.3109 15.4162 59.295 15.2422 60.216 14.8805C61.137 14.5189 61.9765 13.9768 62.6852 13.2862L60.8739 11.4469V11.4961ZM74.0438 0.706022C69.1296 0.706022 66.7779 4.44077 66.7779 8.14743C66.7779 11.8541 69.0805 15.4344 74.0438 15.4344C79.0071 15.4344 81.2466 11.7839 81.2887 8.13339C81.3308 4.48289 78.9088 0.706022 74.0438 0.706022ZM74.0438 3.12799C77.3714 3.12799 78.7053 5.78864 78.6631 8.16849C78.621 10.5483 77.3714 12.9914 74.0438 12.9914C70.7162 12.9914 69.4666 10.5062 69.4035 8.18955C69.3403 5.87289 70.7162 3.12799 74.0438 3.12799ZM89.1653 15.1115V0.965766H86.5257V15.1115H89.1653ZM104.167 9.74101L97.2526 0.965766H95.0903V15.1115H97.758V5.57804L105.178 15.1115H106.835V0.965766H104.167V9.74101ZM123.557 3.31052C122.483 1.12724 120.209 0.502441 118.004 0.502441C115.407 0.502441 112.543 1.71693 112.543 4.62329C112.543 7.7894 115.203 8.5546 118.088 8.89859C119.963 9.10217 121.36 9.64273 121.36 11.0046C121.36 12.535 119.78 13.1107 118.11 13.1107C116.439 13.1107 114.761 12.4087 114.136 10.8783L111.918 12.0226C112.964 14.606 115.182 15.4976 118.067 15.4976C121.213 15.4976 124 14.1427 124 10.9976C124 7.62793 121.255 6.86273 118.313 6.49768C116.614 6.2941 115.161 5.95011 115.161 4.72157C115.161 3.67556 116.109 2.84718 118.088 2.84718C118.731 2.82455 119.371 2.95537 119.953 3.22883C120.535 3.50229 121.044 3.9105 121.437 4.4197L123.543 3.33158L123.557 3.31052Z" fill="white" data-sentry-element="path" data-sentry-source-file="netcoins-logo-text.tsx"></path>
</svg>